<svg xmlns="http://www.w3.org/2000/svg" viewBox="0 0 67.992 67.957">
  <defs>
    <style>
      .cls-1 {
        fill: #ec9797;
      }
    </style>
  </defs>
  <g id="Symbol_1_1" data-name="Symbol 1 – 1" transform="translate(-479 -296)">
    <path id="ic_music_note_24px" class="cls-1" d="M12,3V13.55A3.991,3.991,0,1,0,14,17V7h4V3Z" transform="translate(501 318)"/>
    <path id="ic_data_usage_24px" class="cls-1" d="M39.4,2.05V12.371a23.813,23.813,0,0,1,20.4,23.572A24.308,24.308,0,0,1,58.162,44.6L67,49.807a33.7,33.7,0,0,0,2.992-13.864A34.058,34.058,0,0,0,39.4,2.05ZM36,59.788a23.833,23.833,0,0,1-3.4-47.416V2.05A34.058,34.058,0,1,0,63.363,56.075l-8.839-5.212A23.612,23.612,0,0,1,36,59.788Z" transform="translate(477 293.95)"/>
  </g>
</svg>
